<?xml version="1.0" standalone="no"?>
<!DOCTYPE svg PUBLIC "-//W3C//DTD SVG 20010904//EN"
 "http://www.w3.org/TR/2001/REC-SVG-20010904/DTD/svg10.dtd">
<svg version="1.0" xmlns="http://www.w3.org/2000/svg"
 width="92.000000pt" height="105.000000pt" viewBox="0 0 92.000000 105.000000"
 preserveAspectRatio="xMidYMid meet">

<g transform="translate(0.000000,105.000000) scale(0.100000,-0.100000)"
fill="#000000" stroke="none">
<path d="M0 525 l0 -525 460 0 460 0 0 525 0 525 -460 0 -460 0 0 -525z m550
187 c136 -87 186 -124 188 -140 2 -12 -1 -22 -7 -22 -6 0 -20 -9 -31 -20 -27
-27 -204 -140 -218 -140 -7 0 -12 9 -12 20 0 13 20 32 62 59 33 21 73 48 87
60 14 11 34 27 44 34 16 11 2 23 -135 110 l-153 97 -3 -115 -3 -114 -24 11
c-25 11 -25 13 -25 133 0 118 7 145 35 145 5 0 93 -53 195 -118z m-195 -216
c24 -28 32 -32 47 -23 28 18 47 -7 25 -31 -21 -24 -23 -72 -2 -72 8 0 15 -9
15 -20 0 -11 -7 -20 -15 -20 -27 0 -29 -30 -4 -56 21 -23 22 -26 6 -41 -15
-16 -18 -15 -36 1 -18 17 -22 17 -43 2 -12 -9 -38 -16 -58 -16 -20 0 -46 7
-58 16 -21 15 -25 15 -43 -2 -18 -16 -21 -17 -36 -1 -16 15 -15 18 6 41 25 26
23 56 -4 56 -8 0 -15 9 -15 20 0 11 6 20 14 20 23 0 24 43 2 68 -15 17 -17 25
-8 34 9 9 17 10 30 1 15 -9 23 -5 47 23 42 47 88 47 130 0z"/>
<path d="M256 464 c-26 -26 -18 -34 34 -34 28 0 50 4 50 9 0 16 -31 41 -50 41
-10 0 -26 -7 -34 -16z"/>
<path d="M220 350 c0 -46 34 -90 70 -90 36 0 70 44 70 90 l0 40 -70 0 -70 0 0
-40z"/>
</g>
</svg>
