<?xml version="1.0" encoding="UTF-8" standalone="no" ?>
<!DOCTYPE svg PUBLIC "-//W3C//DTD SVG 1.1//EN" "http://www.w3.org/Graphics/SVG/1.1/DTD/svg11.dtd">
<svg xmlns="http://www.w3.org/2000/svg" xmlns:xlink="http://www.w3.org/1999/xlink" version="1.1" width="200" height="200" viewBox="0 0 200 200" xml:space="preserve">
<desc>Created with Fabric.js 5.2.4</desc>
<defs>
</defs>
<rect x="0" y="0" width="100%" height="100%" fill="transparent"></rect>
<g transform="matrix(1 0 0 1 100 100)" id="ae1315d8-078a-4866-a2c5-b8dc07a5f910"  >
<rect style="stroke: none; stroke-width: 1; stroke-dasharray: none; stroke-linecap: butt; stroke-dashoffset: 0; stroke-linejoin: miter; stroke-miterlimit: 4; fill: rgb(255,255,255); fill-rule: nonzero; opacity: 1; visibility: hidden;" vector-effect="non-scaling-stroke"  x="-100" y="-100" rx="0" ry="0" width="200" height="200" />
</g>
<g transform="matrix(Infinity NaN NaN Infinity 0 0)" id="75b47a32-bd06-40bd-8c81-3e73d1916268"  >
</g>
<g transform="matrix(4.24 0 0 3.39 100 100)" clip-path="url(#CLIPPATH_5)"  >
<clipPath id="CLIPPATH_5" >
	<rect transform="matrix(1 0 0 1 -25.92 26.91)" id="clip0" x="-103" y="-52" rx="0" ry="0" width="206" height="104" />
</clipPath>
<path style="stroke: none; stroke-width: 1; stroke-dasharray: none; stroke-linecap: butt; stroke-dashoffset: 0; stroke-linejoin: miter; stroke-miterlimit: 4; fill: rgb(68,68,68); fill-rule: nonzero; opacity: 1;" vector-effect="non-scaling-stroke"  transform=" translate(-128.92, -25.09)" d="M 147.75 17.1875 C 147.757 15.7371 147.361 14.3132 146.604 13.0754 C 145.848 11.8377 144.763 10.8348 143.469 10.1793 C 142.175 9.52368 140.724 9.24124 139.279 9.36356 C 137.833 9.48589 136.451 10.0081 135.285 10.8719 C 134.12 11.7356 133.218 12.9066 132.681 14.2539 C 132.144 15.6011 131.992 17.0714 132.243 18.5 C 132.494 19.9285 133.138 21.2591 134.102 22.3425 C 135.066 23.4259 136.313 24.2195 137.703 24.6344 C 137.19 25.6774 136.396 26.5566 135.411 27.1732 C 134.425 27.7899 133.287 28.1195 132.125 28.125 L 125.875 28.125 C 123.561 28.1331 121.333 29.002 119.625 30.5625 L 119.625 15.4656 C 121.522 15.0784 123.208 14.0006 124.355 12.4413 C 125.502 10.8819 126.03 8.95199 125.835 7.02574 C 125.641 5.09949 124.738 3.3141 123.302 2.01572 C 121.866 0.717341 119.999 -0.00153351 118.062 -0.00153351 C 116.126 -0.00153351 114.259 0.717341 112.823 2.01572 C 111.387 3.3141 110.484 5.09949 110.29 7.02574 C 110.095 8.95199 110.623 10.8819 111.77 12.4413 C 112.917 14.0006 114.603 15.0784 116.5 15.4656 L 116.5 34.5281 C 114.607 34.8902 112.911 35.9327 111.733 37.4588 C 110.556 38.985 109.977 40.8893 110.107 42.8126 C 110.237 44.7359 111.066 46.5453 112.438 47.8995 C 113.81 49.2536 115.63 50.0589 117.555 50.1635 C 119.48 50.268 121.376 49.6646 122.887 48.4671 C 124.397 47.2695 125.418 45.5606 125.755 43.6626 C 126.092 41.7647 125.723 39.8089 124.718 38.1642 C 123.712 36.5194 122.14 35.2995 120.297 34.7344 C 120.811 33.6925 121.605 32.8146 122.591 32.1991 C 123.576 31.5836 124.713 31.255 125.875 31.25 L 132.125 31.25 C 134.075 31.241 135.973 30.6242 137.556 29.4854 C 139.139 28.3467 140.328 26.7427 140.956 24.8969 C 142.829 24.6505 144.55 23.7337 145.799 22.3163 C 147.048 20.8988 147.741 19.0768 147.75 17.1875 Z M 113.375 7.8125 C 113.375 6.8854 113.65 5.97912 114.165 5.20826 C 114.68 4.43741 115.412 3.8366 116.269 3.48181 C 117.125 3.12703 118.068 3.0342 118.977 3.21507 C 119.886 3.39593 120.721 3.84238 121.377 4.49793 C 122.033 5.15349 122.479 5.98872 122.66 6.89801 C 122.841 7.8073 122.748 8.7498 122.393 9.60633 C 122.038 10.4629 121.438 11.1949 120.667 11.71 C 119.896 12.2251 118.99 12.5 118.062 12.5 C 116.819 12.5 115.627 12.0061 114.748 11.1271 C 113.869 10.248 113.375 9.0557 113.375 7.8125 Z M 122.75 42.1875 C 122.75 43.1146 122.475 44.0209 121.96 44.7917 C 121.445 45.5626 120.713 46.1634 119.856 46.5182 C 119 46.873 118.057 46.9658 117.148 46.7849 C 116.239 46.6041 115.403 46.1576 114.748 45.5021 C 114.092 44.8465 113.646 44.0113 113.465 43.102 C 113.284 42.1927 113.377 41.2502 113.732 40.3937 C 114.087 39.5371 114.687 38.805 115.458 38.29 C 116.229 37.7749 117.135 37.5 118.062 37.5 C 119.306 37.5 120.498 37.9939 121.377 38.8729 C 122.256 39.752 122.75 40.9443 122.75 42.1875 Z M 139.937 21.875 C 139.01 21.875 138.104 21.6001 137.333 21.085 C 136.562 20.5699 135.962 19.8379 135.607 18.9813 C 135.252 18.1248 135.159 17.1823 135.34 16.273 C 135.521 15.3637 135.967 14.5285 136.623 13.8729 C 137.278 13.2174 138.114 12.7709 139.023 12.5901 C 139.932 12.4092 140.875 12.502 141.731 12.8568 C 142.588 13.2116 143.32 13.8124 143.835 14.5833 C 144.35 15.3541 144.625 16.2604 144.625 17.1875 C 144.625 18.4307 144.131 19.623 143.252 20.5021 C 142.373 21.3811 141.181 21.875 139.937 21.875 Z" stroke-linecap="round" />
</g>
</svg>