<?xml version="1.0" encoding="UTF-8" standalone="no" ?>
<!DOCTYPE svg PUBLIC "-//W3C//DTD SVG 1.1//EN" "http://www.w3.org/Graphics/SVG/1.1/DTD/svg11.dtd">
<svg xmlns="http://www.w3.org/2000/svg" xmlns:xlink="http://www.w3.org/1999/xlink" version="1.1" width="200" height="200" viewBox="0 0 200 200" xml:space="preserve">
<desc>Created with Fabric.js 5.2.4</desc>
<defs>
</defs>
<rect x="0" y="0" width="100%" height="100%" fill="transparent"></rect>
<g transform="matrix(1 0 0 1 100 100)" id="653c00b8-ae15-4f1b-a3c1-63f0843dad72"  >
<rect style="stroke: none; stroke-width: 1; stroke-dasharray: none; stroke-linecap: butt; stroke-dashoffset: 0; stroke-linejoin: miter; stroke-miterlimit: 4; fill: rgb(255,255,255); fill-rule: nonzero; opacity: 1; visibility: hidden;" vector-effect="non-scaling-stroke"  x="-100" y="-100" rx="0" ry="0" width="200" height="200" />
</g>
<g transform="matrix(Infinity NaN NaN Infinity 0 0)" id="f110ef80-dc0d-4b7f-a407-9e219d8bca13"  >
</g>
<g transform="matrix(4.56 0 0 3.85 98.33 103.61)" clip-path="url(#CLIPPATH_6)"  >
<clipPath id="CLIPPATH_6" >
	<rect transform="matrix(1 0 0 1 77.81 27)" id="clip0" x="-103" y="-52" rx="0" ry="0" width="206" height="104" />
</clipPath>
<path style="stroke: none; stroke-width: 1; stroke-dasharray: none; stroke-linecap: butt; stroke-dashoffset: 0; stroke-linejoin: miter; stroke-miterlimit: 4; fill: rgb(68,68,68); fill-rule: nonzero; opacity: 0.99;" vector-effect="non-scaling-stroke"  transform=" translate(-25.19, -25)" d="M 25.1875 0 C 26.7663 0 28.2881 0.203451 29.7529 0.610352 C 31.2178 1.01725 32.585 1.59505 33.8545 2.34375 C 35.1403 3.09245 36.304 3.98763 37.3457 5.0293 C 38.3874 6.07096 39.2826 7.2347 40.0312 8.52051 C 40.7799 9.79004 41.3577 11.1572 41.7646 12.6221 C 42.1716 14.0869 42.375 15.6087 42.375 17.1875 C 42.375 19.5475 41.9274 21.7367 41.0322 23.7549 C 40.137 25.7731 38.8594 27.6042 37.1992 29.248 C 35.8483 30.5827 34.8066 32.0719 34.0742 33.7158 C 33.3581 35.3597 33 37.1419 33 39.0625 L 33 45.3125 C 33 45.9635 32.8779 46.5739 32.6338 47.1436 C 32.3896 47.7132 32.056 48.2096 31.6328 48.6328 C 31.2096 49.056 30.7132 49.3896 30.1436 49.6338 C 29.5739 49.8779 28.9635 50 28.3125 50 L 22.0625 50 C 21.4115 50 20.8011 49.8779 20.2314 49.6338 C 19.6618 49.3896 19.1654 49.056 18.7422 48.6328 C 18.319 48.2096 17.9854 47.7132 17.7412 47.1436 C 17.4971 46.5739 17.375 45.9635 17.375 45.3125 L 17.375 39.0625 C 17.375 37.1419 17.0088 35.3597 16.2764 33.7158 C 15.5602 32.0719 14.5267 30.5827 13.1758 29.248 C 11.5156 27.6042 10.238 25.7731 9.34277 23.7549 C 8.44759 21.7367 8 19.5475 8 17.1875 C 8 15.6087 8.20345 14.0869 8.61035 12.6221 C 9.01725 11.1572 9.59505 9.79004 10.3438 8.52051 C 11.0924 7.2347 11.9876 6.07096 13.0293 5.0293 C 14.071 3.98763 15.2266 3.09245 16.4961 2.34375 C 17.7819 1.59505 19.1572 1.01725 20.6221 0.610352 C 22.0869 0.203451 23.6087 0 25.1875 0 Z M 28.3125 46.875 C 28.7357 46.875 29.1019 46.7204 29.4111 46.4111 C 29.7204 46.1019 29.875 45.7357 29.875 45.3125 L 29.875 40.625 L 20.5 40.625 L 20.5 45.3125 C 20.5 45.7357 20.6546 46.1019 20.9639 46.4111 C 21.2731 46.7204 21.6393 46.875 22.0625 46.875 L 28.3125 46.875 Z M 29.9482 37.5 C 30.1598 35.4004 30.6969 33.4961 31.5596 31.7871 C 32.4222 30.0781 33.5859 28.4831 35.0508 27.002 C 36.4017 25.6348 37.4352 24.1455 38.1514 22.5342 C 38.8838 20.9066 39.25 19.1243 39.25 17.1875 C 39.25 15.2507 38.8757 13.4277 38.127 11.7188 C 37.3945 10.0098 36.3936 8.52051 35.124 7.25098 C 33.8545 5.98145 32.3652 4.98047 30.6562 4.24805 C 28.9473 3.49935 27.1243 3.125 25.1875 3.125 C 23.2507 3.125 21.4277 3.49935 19.7188 4.24805 C 18.0098 4.98047 16.5205 5.98145 15.251 7.25098 C 13.9814 8.52051 12.9723 10.0098 12.2236 11.7188 C 11.4912 13.4277 11.125 15.2507 11.125 17.1875 C 11.125 19.1243 11.4831 20.9066 12.1992 22.5342 C 12.9316 24.1455 13.9733 25.6348 15.3242 27.002 C 16.7891 28.4831 17.9528 30.0781 18.8154 31.7871 C 19.6781 33.4961 20.2152 35.4004 20.4268 37.5 L 29.9482 37.5 Z" stroke-linecap="round" />
</g>
</svg>